<svg xmlns="http://www.w3.org/2000/svg" version="1.1" xmlns:xlink="http://www.w3.org/1999/xlink" xmlns:svgjs="http://svgjs.dev/svgjs" width="1440" height="560" preserveAspectRatio="none" viewBox="0 0 1440 560"><g mask="url(&quot;#SvgjsMask1039&quot;)" fill="none"><rect width="1440" height="560" x="0" y="0" fill="rgba(255, 239, 191, 1)"></rect><path d="M125.06 492.61L190.02 530.11L190.02 605.11L125.06 642.61L60.11 605.11L60.11 530.11zM254.97 267.61L319.93 305.11L319.93 380.11L254.97 417.61L190.02 380.11L190.02 305.11zM319.93 155.11L384.88 192.61L384.88 267.61L319.93 305.11L254.97 267.61L254.97 192.61zM384.88 492.61L449.83 530.11L449.83 605.11L384.88 642.61L319.93 605.11L319.93 530.11zM449.83 380.11L514.79 417.61L514.79 492.61L449.83 530.11L384.88 492.61L384.88 417.61zM579.74 380.11L644.69 417.61L644.69 492.61L579.74 530.11L514.79 492.61L514.79 417.61zM709.65 -69.89L774.6 -32.39L774.6 42.61L709.65 80.11L644.69 42.61L644.69 -32.39zM774.6 492.61L839.56 530.11L839.56 605.11L774.6 642.61L709.65 605.11L709.65 530.11zM904.51 267.61L969.46 305.11L969.46 380.11L904.51 417.61L839.55 380.11L839.55 305.11zM904.51 492.61L969.46 530.11L969.46 605.11L904.51 642.61L839.55 605.11L839.55 530.11zM969.46 -69.89L1034.42 -32.39L1034.42 42.61L969.46 80.11L904.51 42.61L904.51 -32.39zM969.46 155.11L1034.42 192.61L1034.42 267.61L969.46 305.11L904.51 267.61L904.51 192.61zM1099.37 -69.89L1164.32 -32.39L1164.32 42.61L1099.37 80.11L1034.42 42.61L1034.42 -32.39zM1164.32 492.61L1229.28 530.11L1229.28 605.11L1164.32 642.61L1099.37 605.11L1099.37 530.11zM1424.14 492.61L1489.09 530.11L1489.09 605.11L1424.14 642.61L1359.18 605.11L1359.18 530.11zM1489.09 -69.89L1554.05 -32.39L1554.05 42.61L1489.09 80.11L1424.14 42.61L1424.14 -32.39zM1554.05 42.61L1619 80.11L1619 155.11L1554.05 192.61L1489.09 155.11L1489.09 80.11zM1554.05 492.61L1619 530.11L1619 605.11L1554.05 642.61L1489.09 605.11L1489.09 530.11z" stroke="rgba(206, 127, 14, 1)" stroke-width="2"></path><path d="M117.56 492.61 a7.5 7.5 0 1 0 15 0 a7.5 7.5 0 1 0 -15 0zM182.52 530.11 a7.5 7.5 0 1 0 15 0 a7.5 7.5 0 1 0 -15 0zM182.52 605.11 a7.5 7.5 0 1 0 15 0 a7.5 7.5 0 1 0 -15 0zM117.56 642.61 a7.5 7.5 0 1 0 15 0 a7.5 7.5 0 1 0 -15 0zM52.61 605.11 a7.5 7.5 0 1 0 15 0 a7.5 7.5 0 1 0 -15 0zM52.61 530.11 a7.5 7.5 0 1 0 15 0 a7.5 7.5 0 1 0 -15 0zM247.47 267.61 a7.5 7.5 0 1 0 15 0 a7.5 7.5 0 1 0 -15 0zM312.43 305.11 a7.5 7.5 0 1 0 15 0 a7.5 7.5 0 1 0 -15 0zM312.43 380.11 a7.5 7.5 0 1 0 15 0 a7.5 7.5 0 1 0 -15 0zM247.47 417.61 a7.5 7.5 0 1 0 15 0 a7.5 7.5 0 1 0 -15 0zM182.52 380.11 a7.5 7.5 0 1 0 15 0 a7.5 7.5 0 1 0 -15 0zM182.52 305.11 a7.5 7.5 0 1 0 15 0 a7.5 7.5 0 1 0 -15 0zM312.43 155.11 a7.5 7.5 0 1 0 15 0 a7.5 7.5 0 1 0 -15 0zM377.38 192.61 a7.5 7.5 0 1 0 15 0 a7.5 7.5 0 1 0 -15 0zM377.38 267.61 a7.5 7.5 0 1 0 15 0 a7.5 7.5 0 1 0 -15 0zM247.47 192.61 a7.5 7.5 0 1 0 15 0 a7.5 7.5 0 1 0 -15 0zM377.38 492.61 a7.5 7.5 0 1 0 15 0 a7.5 7.5 0 1 0 -15 0zM442.33 530.11 a7.5 7.5 0 1 0 15 0 a7.5 7.5 0 1 0 -15 0zM442.33 605.11 a7.5 7.5 0 1 0 15 0 a7.5 7.5 0 1 0 -15 0zM377.38 642.61 a7.5 7.5 0 1 0 15 0 a7.5 7.5 0 1 0 -15 0zM312.43 605.11 a7.5 7.5 0 1 0 15 0 a7.5 7.5 0 1 0 -15 0zM312.43 530.11 a7.5 7.5 0 1 0 15 0 a7.5 7.5 0 1 0 -15 0zM442.33 380.11 a7.5 7.5 0 1 0 15 0 a7.5 7.5 0 1 0 -15 0zM507.29 417.61 a7.5 7.5 0 1 0 15 0 a7.5 7.5 0 1 0 -15 0zM507.29 492.61 a7.5 7.5 0 1 0 15 0 a7.5 7.5 0 1 0 -15 0zM377.38 417.61 a7.5 7.5 0 1 0 15 0 a7.5 7.5 0 1 0 -15 0zM572.24 380.11 a7.5 7.5 0 1 0 15 0 a7.5 7.5 0 1 0 -15 0zM637.19 417.61 a7.5 7.5 0 1 0 15 0 a7.5 7.5 0 1 0 -15 0zM637.19 492.61 a7.5 7.5 0 1 0 15 0 a7.5 7.5 0 1 0 -15 0zM572.24 530.11 a7.5 7.5 0 1 0 15 0 a7.5 7.5 0 1 0 -15 0zM702.15 -69.89 a7.5 7.5 0 1 0 15 0 a7.5 7.5 0 1 0 -15 0zM767.1 -32.39 a7.5 7.5 0 1 0 15 0 a7.5 7.5 0 1 0 -15 0zM767.1 42.61 a7.5 7.5 0 1 0 15 0 a7.5 7.5 0 1 0 -15 0zM702.15 80.11 a7.5 7.5 0 1 0 15 0 a7.5 7.5 0 1 0 -15 0zM637.19 42.61 a7.5 7.5 0 1 0 15 0 a7.5 7.5 0 1 0 -15 0zM637.19 -32.39 a7.5 7.5 0 1 0 15 0 a7.5 7.5 0 1 0 -15 0zM767.1 492.61 a7.5 7.5 0 1 0 15 0 a7.5 7.5 0 1 0 -15 0zM832.06 530.11 a7.5 7.5 0 1 0 15 0 a7.5 7.5 0 1 0 -15 0zM832.06 605.11 a7.5 7.5 0 1 0 15 0 a7.5 7.5 0 1 0 -15 0zM767.1 642.61 a7.5 7.5 0 1 0 15 0 a7.5 7.5 0 1 0 -15 0zM702.15 605.11 a7.5 7.5 0 1 0 15 0 a7.5 7.5 0 1 0 -15 0zM702.15 530.11 a7.5 7.5 0 1 0 15 0 a7.5 7.5 0 1 0 -15 0zM897.01 267.61 a7.5 7.5 0 1 0 15 0 a7.5 7.5 0 1 0 -15 0zM961.96 305.11 a7.5 7.5 0 1 0 15 0 a7.5 7.5 0 1 0 -15 0zM961.96 380.11 a7.5 7.5 0 1 0 15 0 a7.5 7.5 0 1 0 -15 0zM897.01 417.61 a7.5 7.5 0 1 0 15 0 a7.5 7.5 0 1 0 -15 0zM832.05 380.11 a7.5 7.5 0 1 0 15 0 a7.5 7.5 0 1 0 -15 0zM832.05 305.11 a7.5 7.5 0 1 0 15 0 a7.5 7.5 0 1 0 -15 0zM897.01 492.61 a7.5 7.5 0 1 0 15 0 a7.5 7.5 0 1 0 -15 0zM961.96 530.11 a7.5 7.5 0 1 0 15 0 a7.5 7.5 0 1 0 -15 0zM961.96 605.11 a7.5 7.5 0 1 0 15 0 a7.5 7.5 0 1 0 -15 0zM897.01 642.61 a7.5 7.5 0 1 0 15 0 a7.5 7.5 0 1 0 -15 0zM832.05 605.11 a7.5 7.5 0 1 0 15 0 a7.5 7.5 0 1 0 -15 0zM832.05 530.11 a7.5 7.5 0 1 0 15 0 a7.5 7.5 0 1 0 -15 0zM961.96 -69.89 a7.5 7.5 0 1 0 15 0 a7.5 7.5 0 1 0 -15 0zM1026.92 -32.39 a7.5 7.5 0 1 0 15 0 a7.5 7.5 0 1 0 -15 0zM1026.92 42.61 a7.5 7.5 0 1 0 15 0 a7.5 7.5 0 1 0 -15 0zM961.96 80.11 a7.5 7.5 0 1 0 15 0 a7.5 7.5 0 1 0 -15 0zM897.01 42.61 a7.5 7.5 0 1 0 15 0 a7.5 7.5 0 1 0 -15 0zM897.01 -32.39 a7.5 7.5 0 1 0 15 0 a7.5 7.5 0 1 0 -15 0zM961.96 155.11 a7.5 7.5 0 1 0 15 0 a7.5 7.5 0 1 0 -15 0zM1026.92 192.61 a7.5 7.5 0 1 0 15 0 a7.5 7.5 0 1 0 -15 0zM1026.92 267.61 a7.5 7.5 0 1 0 15 0 a7.5 7.5 0 1 0 -15 0zM897.01 192.61 a7.5 7.5 0 1 0 15 0 a7.5 7.5 0 1 0 -15 0zM1091.87 -69.89 a7.5 7.5 0 1 0 15 0 a7.5 7.5 0 1 0 -15 0zM1156.82 -32.39 a7.5 7.5 0 1 0 15 0 a7.5 7.5 0 1 0 -15 0zM1156.82 42.61 a7.5 7.5 0 1 0 15 0 a7.5 7.5 0 1 0 -15 0zM1091.87 80.11 a7.5 7.5 0 1 0 15 0 a7.5 7.5 0 1 0 -15 0zM1156.82 492.61 a7.5 7.5 0 1 0 15 0 a7.5 7.5 0 1 0 -15 0zM1221.78 530.11 a7.5 7.5 0 1 0 15 0 a7.5 7.5 0 1 0 -15 0zM1221.78 605.11 a7.5 7.5 0 1 0 15 0 a7.5 7.5 0 1 0 -15 0zM1156.82 642.61 a7.5 7.5 0 1 0 15 0 a7.5 7.5 0 1 0 -15 0zM1091.87 605.11 a7.5 7.5 0 1 0 15 0 a7.5 7.5 0 1 0 -15 0zM1091.87 530.11 a7.5 7.5 0 1 0 15 0 a7.5 7.5 0 1 0 -15 0zM1416.64 492.61 a7.5 7.5 0 1 0 15 0 a7.5 7.5 0 1 0 -15 0zM1481.59 530.11 a7.5 7.5 0 1 0 15 0 a7.5 7.5 0 1 0 -15 0zM1481.59 605.11 a7.5 7.5 0 1 0 15 0 a7.5 7.5 0 1 0 -15 0zM1416.64 642.61 a7.5 7.5 0 1 0 15 0 a7.5 7.5 0 1 0 -15 0zM1351.68 605.11 a7.5 7.5 0 1 0 15 0 a7.5 7.5 0 1 0 -15 0zM1351.68 530.11 a7.5 7.5 0 1 0 15 0 a7.5 7.5 0 1 0 -15 0zM1481.59 -69.89 a7.5 7.5 0 1 0 15 0 a7.5 7.5 0 1 0 -15 0zM1546.55 -32.39 a7.5 7.5 0 1 0 15 0 a7.5 7.5 0 1 0 -15 0zM1546.55 42.61 a7.5 7.5 0 1 0 15 0 a7.5 7.5 0 1 0 -15 0zM1481.59 80.11 a7.5 7.5 0 1 0 15 0 a7.5 7.5 0 1 0 -15 0zM1416.64 42.61 a7.5 7.5 0 1 0 15 0 a7.5 7.5 0 1 0 -15 0zM1416.64 -32.39 a7.5 7.5 0 1 0 15 0 a7.5 7.5 0 1 0 -15 0zM1611.5 80.11 a7.5 7.5 0 1 0 15 0 a7.5 7.5 0 1 0 -15 0zM1611.5 155.11 a7.5 7.5 0 1 0 15 0 a7.5 7.5 0 1 0 -15 0zM1546.55 192.61 a7.5 7.5 0 1 0 15 0 a7.5 7.5 0 1 0 -15 0zM1481.59 155.11 a7.5 7.5 0 1 0 15 0 a7.5 7.5 0 1 0 -15 0zM1546.55 492.61 a7.5 7.5 0 1 0 15 0 a7.5 7.5 0 1 0 -15 0zM1611.5 530.11 a7.5 7.5 0 1 0 15 0 a7.5 7.5 0 1 0 -15 0zM1611.5 605.11 a7.5 7.5 0 1 0 15 0 a7.5 7.5 0 1 0 -15 0zM1546.55 642.61 a7.5 7.5 0 1 0 15 0 a7.5 7.5 0 1 0 -15 0z" fill="rgba(206, 127, 14, 1)"></path><path d="M25.71 -27.86L57.75 -9.36L57.75 27.64L25.71 46.14L-6.33 27.64L-6.33 -9.36zM57.75 138.64L89.8 157.14L89.8 194.14L57.75 212.64L25.71 194.14L25.71 157.14zM57.75 249.64L89.8 268.14L89.8 305.14L57.75 323.64L25.71 305.14L25.71 268.14zM25.71 305.14L57.75 323.64L57.75 360.64L25.71 379.14L-6.33 360.64L-6.33 323.64zM25.71 416.14L57.75 434.64L57.75 471.64L25.71 490.14L-6.33 471.64L-6.33 434.64zM25.71 527.14L57.75 545.64L57.75 582.64L25.71 601.14L-6.33 582.64L-6.33 545.64zM89.8 -27.86L121.84 -9.36L121.84 27.64L89.8 46.14L57.75 27.64L57.75 -9.36zM121.84 27.64L153.89 46.14L153.89 83.14L121.84 101.64L89.8 83.14L89.8 46.14zM121.84 138.64L153.89 157.14L153.89 194.14L121.84 212.64L89.8 194.14L89.8 157.14zM89.8 194.14L121.84 212.64L121.84 249.64L89.8 268.14L57.75 249.64L57.75 212.64zM121.84 471.64L153.89 490.14L153.89 527.14L121.84 545.64L89.8 527.14L89.8 490.14zM153.89 83.14L185.93 101.64L185.93 138.64L153.89 157.14L121.84 138.64L121.84 101.64zM185.93 249.64L217.97 268.14L217.97 305.14L185.93 323.64L153.89 305.14L153.89 268.14zM153.89 305.14L185.93 323.64L185.93 360.64L153.89 379.14L121.84 360.64L121.84 323.64zM185.93 360.64L217.97 379.14L217.97 416.14L185.93 434.64L153.89 416.14L153.89 379.14zM185.93 471.64L217.97 490.14L217.97 527.14L185.93 545.64L153.89 527.14L153.89 490.14zM217.97 83.14L250.02 101.64L250.02 138.64L217.97 157.14L185.93 138.64L185.93 101.64zM250.02 138.64L282.06 157.14L282.06 194.14L250.02 212.64L217.97 194.14L217.97 157.14zM217.97 305.14L250.02 323.64L250.02 360.64L217.97 379.14L185.93 360.64L185.93 323.64zM217.97 416.14L250.02 434.64L250.02 471.64L217.97 490.14L185.93 471.64L185.93 434.64zM282.06 -27.86L314.1 -9.36L314.1 27.64L282.06 46.14L250.02 27.64L250.02 -9.36zM314.1 27.64L346.15 46.14L346.15 83.14L314.1 101.64L282.06 83.14L282.06 46.14zM282.06 83.14L314.1 101.64L314.1 138.64L282.06 157.14L250.02 138.64L250.02 101.64zM282.06 527.14L314.1 545.64L314.1 582.64L282.06 601.14L250.02 582.64L250.02 545.64zM378.19 27.64L410.24 46.14L410.24 83.14L378.19 101.64L346.15 83.14L346.15 46.14zM378.19 138.64L410.24 157.14L410.24 194.14L378.19 212.64L346.15 194.14L346.15 157.14zM378.19 249.64L410.24 268.14L410.24 305.14L378.19 323.64L346.15 305.14L346.15 268.14zM346.15 305.14L378.19 323.64L378.19 360.64L346.15 379.14L314.1 360.64L314.1 323.64zM378.19 471.64L410.24 490.14L410.24 527.14L378.19 545.64L346.15 527.14L346.15 490.14zM346.15 527.14L378.19 545.64L378.19 582.64L346.15 601.14L314.1 582.64L314.1 545.64zM410.24 -27.86L442.28 -9.36L442.28 27.64L410.24 46.14L378.19 27.64L378.19 -9.36zM442.28 27.64L474.32 46.14L474.32 83.14L442.28 101.64L410.24 83.14L410.24 46.14zM410.24 194.14L442.28 212.64L442.28 249.64L410.24 268.14L378.19 249.64L378.19 212.64zM410.24 305.14L442.28 323.64L442.28 360.64L410.24 379.14L378.19 360.64L378.19 323.64zM442.28 360.64L474.32 379.14L474.32 416.14L442.28 434.64L410.24 416.14L410.24 379.14zM506.37 138.64L538.41 157.14L538.41 194.14L506.37 212.64L474.32 194.14L474.32 157.14zM474.32 194.14L506.37 212.64L506.37 249.64L474.32 268.14L442.28 249.64L442.28 212.64zM474.32 416.14L506.37 434.64L506.37 471.64L474.32 490.14L442.28 471.64L442.28 434.64zM506.37 471.64L538.41 490.14L538.41 527.14L506.37 545.64L474.32 527.14L474.32 490.14zM570.46 27.64L602.5 46.14L602.5 83.14L570.46 101.64L538.41 83.14L538.41 46.14zM538.41 83.14L570.46 101.64L570.46 138.64L538.41 157.14L506.37 138.64L506.37 101.64zM570.46 138.64L602.5 157.14L602.5 194.14L570.46 212.64L538.41 194.14L538.41 157.14zM570.46 249.64L602.5 268.14L602.5 305.14L570.46 323.64L538.41 305.14L538.41 268.14zM634.54 27.64L666.59 46.14L666.59 83.14L634.54 101.64L602.5 83.14L602.5 46.14zM602.5 83.14L634.54 101.64L634.54 138.64L602.5 157.14L570.46 138.64L570.46 101.64zM634.54 360.64L666.59 379.14L666.59 416.14L634.54 434.64L602.5 416.14L602.5 379.14zM634.54 471.64L666.59 490.14L666.59 527.14L634.54 545.64L602.5 527.14L602.5 490.14zM698.63 138.64L730.67 157.14L730.67 194.14L698.63 212.64L666.59 194.14L666.59 157.14zM666.59 416.14L698.63 434.64L698.63 471.64L666.59 490.14L634.54 471.64L634.54 434.64zM666.59 527.14L698.63 545.64L698.63 582.64L666.59 601.14L634.54 582.64L634.54 545.64zM762.72 27.64L794.76 46.14L794.76 83.14L762.72 101.64L730.67 83.14L730.67 46.14zM762.72 138.64L794.76 157.14L794.76 194.14L762.72 212.64L730.67 194.14L730.67 157.14zM730.67 194.14L762.72 212.64L762.72 249.64L730.67 268.14L698.63 249.64L698.63 212.64zM762.72 249.64L794.76 268.14L794.76 305.14L762.72 323.64L730.67 305.14L730.67 268.14zM730.67 416.14L762.72 434.64L762.72 471.64L730.67 490.14L698.63 471.64L698.63 434.64zM762.72 471.64L794.76 490.14L794.76 527.14L762.72 545.64L730.67 527.14L730.67 490.14zM794.76 -27.86L826.81 -9.36L826.81 27.64L794.76 46.14L762.72 27.64L762.72 -9.36zM826.81 27.64L858.85 46.14L858.85 83.14L826.81 101.64L794.76 83.14L794.76 46.14zM794.76 83.14L826.81 101.64L826.81 138.64L794.76 157.14L762.72 138.64L762.72 101.64zM826.81 138.64L858.85 157.14L858.85 194.14L826.81 212.64L794.76 194.14L794.76 157.14zM794.76 194.14L826.81 212.64L826.81 249.64L794.76 268.14L762.72 249.64L762.72 212.64zM826.81 249.64L858.85 268.14L858.85 305.14L826.81 323.64L794.76 305.14L794.76 268.14zM826.81 360.64L858.85 379.14L858.85 416.14L826.81 434.64L794.76 416.14L794.76 379.14zM826.81 471.64L858.85 490.14L858.85 527.14L826.81 545.64L794.76 527.14L794.76 490.14zM890.89 27.64L922.94 46.14L922.94 83.14L890.89 101.64L858.85 83.14L858.85 46.14zM858.85 83.14L890.89 101.64L890.89 138.64L858.85 157.14L826.81 138.64L826.81 101.64zM890.89 138.64L922.94 157.14L922.94 194.14L890.89 212.64L858.85 194.14L858.85 157.14zM858.85 194.14L890.89 212.64L890.89 249.64L858.85 268.14L826.81 249.64L826.81 212.64zM858.85 305.14L890.89 323.64L890.89 360.64L858.85 379.14L826.81 360.64L826.81 323.64zM890.89 360.64L922.94 379.14L922.94 416.14L890.89 434.64L858.85 416.14L858.85 379.14zM858.85 416.14L890.89 434.64L890.89 471.64L858.85 490.14L826.81 471.64L826.81 434.64zM858.85 527.14L890.89 545.64L890.89 582.64L858.85 601.14L826.81 582.64L826.81 545.64zM954.98 138.64L987.03 157.14L987.03 194.14L954.98 212.64L922.94 194.14L922.94 157.14zM922.94 194.14L954.98 212.64L954.98 249.64L922.94 268.14L890.89 249.64L890.89 212.64zM954.98 471.64L987.03 490.14L987.03 527.14L954.98 545.64L922.94 527.14L922.94 490.14zM987.03 -27.86L1019.07 -9.36L1019.07 27.64L987.03 46.14L954.98 27.64L954.98 -9.36zM987.03 83.14L1019.07 101.64L1019.07 138.64L987.03 157.14L954.98 138.64L954.98 101.64zM987.03 305.14L1019.07 323.64L1019.07 360.64L987.03 379.14L954.98 360.64L954.98 323.64zM987.03 416.14L1019.07 434.64L1019.07 471.64L987.03 490.14L954.98 471.64L954.98 434.64zM1019.07 471.64L1051.11 490.14L1051.11 527.14L1019.07 545.64L987.03 527.14L987.03 490.14zM987.03 527.14L1019.07 545.64L1019.07 582.64L987.03 601.14L954.98 582.64L954.98 545.64zM1051.11 -27.86L1083.16 -9.36L1083.16 27.64L1051.11 46.14L1019.07 27.64L1019.07 -9.36zM1083.16 27.64L1115.2 46.14L1115.2 83.14L1083.16 101.64L1051.11 83.14L1051.11 46.14zM1083.16 249.64L1115.2 268.14L1115.2 305.14L1083.16 323.64L1051.11 305.14L1051.11 268.14zM1051.11 305.14L1083.16 323.64L1083.16 360.64L1051.11 379.14L1019.07 360.64L1019.07 323.64zM1115.2 83.14L1147.24 101.64L1147.24 138.64L1115.2 157.14L1083.16 138.64L1083.16 101.64zM1115.2 194.14L1147.24 212.64L1147.24 249.64L1115.2 268.14L1083.16 249.64L1083.16 212.64zM1115.2 305.14L1147.24 323.64L1147.24 360.64L1115.2 379.14L1083.16 360.64L1083.16 323.64zM1147.24 360.64L1179.29 379.14L1179.29 416.14L1147.24 434.64L1115.2 416.14L1115.2 379.14zM1115.2 416.14L1147.24 434.64L1147.24 471.64L1115.2 490.14L1083.16 471.64L1083.16 434.64zM1179.29 -27.86L1211.33 -9.36L1211.33 27.64L1179.29 46.14L1147.24 27.64L1147.24 -9.36zM1179.29 83.14L1211.33 101.64L1211.33 138.64L1179.29 157.14L1147.24 138.64L1147.24 101.64zM1179.29 194.14L1211.33 212.64L1211.33 249.64L1179.29 268.14L1147.24 249.64L1147.24 212.64zM1211.33 249.64L1243.38 268.14L1243.38 305.14L1211.33 323.64L1179.29 305.14L1179.29 268.14zM1211.33 360.64L1243.38 379.14L1243.38 416.14L1211.33 434.64L1179.29 416.14L1179.29 379.14zM1179.29 416.14L1211.33 434.64L1211.33 471.64L1179.29 490.14L1147.24 471.64L1147.24 434.64zM1211.33 471.64L1243.38 490.14L1243.38 527.14L1211.33 545.64L1179.29 527.14L1179.29 490.14zM1275.42 138.64L1307.46 157.14L1307.46 194.14L1275.42 212.64L1243.38 194.14L1243.38 157.14zM1243.38 194.14L1275.42 212.64L1275.42 249.64L1243.38 268.14L1211.33 249.64L1211.33 212.64zM1275.42 360.64L1307.46 379.14L1307.46 416.14L1275.42 434.64L1243.38 416.14L1243.38 379.14zM1243.38 416.14L1275.42 434.64L1275.42 471.64L1243.38 490.14L1211.33 471.64L1211.33 434.64zM1243.38 527.14L1275.42 545.64L1275.42 582.64L1243.38 601.14L1211.33 582.64L1211.33 545.64zM1307.46 194.14L1339.51 212.64L1339.51 249.64L1307.46 268.14L1275.42 249.64L1275.42 212.64zM1339.51 360.64L1371.55 379.14L1371.55 416.14L1339.51 434.64L1307.46 416.14L1307.46 379.14zM1307.46 416.14L1339.51 434.64L1339.51 471.64L1307.46 490.14L1275.42 471.64L1275.42 434.64zM1339.51 471.64L1371.55 490.14L1371.55 527.14L1339.51 545.64L1307.46 527.14L1307.46 490.14zM1307.46 527.14L1339.51 545.64L1339.51 582.64L1307.46 601.14L1275.42 582.64L1275.42 545.64zM1371.55 -27.86L1403.6 -9.36L1403.6 27.64L1371.55 46.14L1339.51 27.64L1339.51 -9.36zM1371.55 83.14L1403.6 101.64L1403.6 138.64L1371.55 157.14L1339.51 138.64L1339.51 101.64zM1371.55 194.14L1403.6 212.64L1403.6 249.64L1371.55 268.14L1339.51 249.64L1339.51 212.64zM1403.6 471.64L1435.64 490.14L1435.64 527.14L1403.6 545.64L1371.55 527.14L1371.55 490.14zM1435.64 -27.86L1467.68 -9.36L1467.68 27.64L1435.64 46.14L1403.6 27.64L1403.6 -9.36zM1467.68 138.64L1499.73 157.14L1499.73 194.14L1467.68 212.64L1435.64 194.14L1435.64 157.14z" stroke="rgba(205, 112, 11, 1)" stroke-width="2"></path></g><defs><mask id="SvgjsMask1039"><rect width="1440" height="560" fill="#ffffff"></rect></mask></defs></svg>