<svg xmlns="http://www.w3.org/2000/svg" version="1.1" xmlns:xlink="http://www.w3.org/1999/xlink" xmlns:svgjs="http://svgjs.dev/svgjs" width="1440" height="560" preserveAspectRatio="none" viewBox="0 0 1440 560"><g mask="url(&quot;#SvgjsMask1000&quot;)" fill="none"><rect width="1440" height="560" x="0" y="0" fill="#0e2a47"></rect><path d="M63.25 181.61L128.2 219.11L128.2 294.11L63.25 331.61L-1.7 294.11L-1.7 219.11zM193.16 181.61L258.11 219.11L258.11 294.11L193.16 331.61L128.2 294.11L128.2 219.11zM582.88 -43.39L647.83 -5.89L647.83 69.11L582.88 106.61L517.93 69.11L517.93 -5.89zM647.83 69.11L712.79 106.61L712.79 181.61L647.83 219.11L582.88 181.61L582.88 106.61zM712.79 406.61L777.74 444.11L777.74 519.11L712.79 556.61L647.83 519.11L647.83 444.11zM777.74 519.11L842.7 556.61L842.7 631.61L777.74 669.11L712.79 631.61L712.79 556.61zM842.69 181.61L907.65 219.11L907.65 294.11L842.69 331.61L777.74 294.11L777.74 219.11zM1037.56 294.11L1102.51 331.61L1102.51 406.61L1037.56 444.11L972.6 406.61L972.6 331.61zM1167.46 519.11L1232.42 556.61L1232.42 631.61L1167.46 669.11L1102.51 631.61L1102.51 556.61zM1297.37 294.11L1362.32 331.61L1362.32 406.61L1297.37 444.11L1232.42 406.61L1232.42 331.61zM1232.42 406.61L1297.37 444.11L1297.37 519.11L1232.42 556.61L1167.46 519.11L1167.46 444.11zM1362.33 181.61L1427.28 219.11L1427.28 294.11L1362.33 331.61L1297.37 294.11L1297.37 219.11z" stroke="#03305d" stroke-width="2"></path><path d="M55.75 181.61 a7.5 7.5 0 1 0 15 0 a7.5 7.5 0 1 0 -15 0zM120.7 219.11 a7.5 7.5 0 1 0 15 0 a7.5 7.5 0 1 0 -15 0zM120.7 294.11 a7.5 7.5 0 1 0 15 0 a7.5 7.5 0 1 0 -15 0zM55.75 331.61 a7.5 7.5 0 1 0 15 0 a7.5 7.5 0 1 0 -15 0zM-9.2 294.11 a7.5 7.5 0 1 0 15 0 a7.5 7.5 0 1 0 -15 0zM-9.2 219.11 a7.5 7.5 0 1 0 15 0 a7.5 7.5 0 1 0 -15 0zM185.66 181.61 a7.5 7.5 0 1 0 15 0 a7.5 7.5 0 1 0 -15 0zM250.61 219.11 a7.5 7.5 0 1 0 15 0 a7.5 7.5 0 1 0 -15 0zM250.61 294.11 a7.5 7.5 0 1 0 15 0 a7.5 7.5 0 1 0 -15 0zM185.66 331.61 a7.5 7.5 0 1 0 15 0 a7.5 7.5 0 1 0 -15 0zM575.38 -43.39 a7.5 7.5 0 1 0 15 0 a7.5 7.5 0 1 0 -15 0zM640.33 -5.89 a7.5 7.5 0 1 0 15 0 a7.5 7.5 0 1 0 -15 0zM640.33 69.11 a7.5 7.5 0 1 0 15 0 a7.5 7.5 0 1 0 -15 0zM575.38 106.61 a7.5 7.5 0 1 0 15 0 a7.5 7.5 0 1 0 -15 0zM510.43 69.11 a7.5 7.5 0 1 0 15 0 a7.5 7.5 0 1 0 -15 0zM510.43 -5.89 a7.5 7.5 0 1 0 15 0 a7.5 7.5 0 1 0 -15 0zM705.29 106.61 a7.5 7.5 0 1 0 15 0 a7.5 7.5 0 1 0 -15 0zM705.29 181.61 a7.5 7.5 0 1 0 15 0 a7.5 7.5 0 1 0 -15 0zM640.33 219.11 a7.5 7.5 0 1 0 15 0 a7.5 7.5 0 1 0 -15 0zM575.38 181.61 a7.5 7.5 0 1 0 15 0 a7.5 7.5 0 1 0 -15 0zM705.29 406.61 a7.5 7.5 0 1 0 15 0 a7.5 7.5 0 1 0 -15 0zM770.24 444.11 a7.5 7.5 0 1 0 15 0 a7.5 7.5 0 1 0 -15 0zM770.24 519.11 a7.5 7.5 0 1 0 15 0 a7.5 7.5 0 1 0 -15 0zM705.29 556.61 a7.5 7.5 0 1 0 15 0 a7.5 7.5 0 1 0 -15 0zM640.33 519.11 a7.5 7.5 0 1 0 15 0 a7.5 7.5 0 1 0 -15 0zM640.33 444.11 a7.5 7.5 0 1 0 15 0 a7.5 7.5 0 1 0 -15 0zM835.2 556.61 a7.5 7.5 0 1 0 15 0 a7.5 7.5 0 1 0 -15 0zM835.2 631.61 a7.5 7.5 0 1 0 15 0 a7.5 7.5 0 1 0 -15 0zM770.24 669.11 a7.5 7.5 0 1 0 15 0 a7.5 7.5 0 1 0 -15 0zM705.29 631.61 a7.5 7.5 0 1 0 15 0 a7.5 7.5 0 1 0 -15 0zM835.19 181.61 a7.5 7.5 0 1 0 15 0 a7.5 7.5 0 1 0 -15 0zM900.15 219.11 a7.5 7.5 0 1 0 15 0 a7.5 7.5 0 1 0 -15 0zM900.15 294.11 a7.5 7.5 0 1 0 15 0 a7.5 7.5 0 1 0 -15 0zM835.19 331.61 a7.5 7.5 0 1 0 15 0 a7.5 7.5 0 1 0 -15 0zM770.24 294.11 a7.5 7.5 0 1 0 15 0 a7.5 7.5 0 1 0 -15 0zM770.24 219.11 a7.5 7.5 0 1 0 15 0 a7.5 7.5 0 1 0 -15 0zM1030.06 294.11 a7.5 7.5 0 1 0 15 0 a7.5 7.5 0 1 0 -15 0zM1095.01 331.61 a7.5 7.5 0 1 0 15 0 a7.5 7.5 0 1 0 -15 0zM1095.01 406.61 a7.5 7.5 0 1 0 15 0 a7.5 7.5 0 1 0 -15 0zM1030.06 444.11 a7.5 7.5 0 1 0 15 0 a7.5 7.5 0 1 0 -15 0zM965.1 406.61 a7.5 7.5 0 1 0 15 0 a7.5 7.5 0 1 0 -15 0zM965.1 331.61 a7.5 7.5 0 1 0 15 0 a7.5 7.5 0 1 0 -15 0zM1159.96 519.11 a7.5 7.5 0 1 0 15 0 a7.5 7.5 0 1 0 -15 0zM1224.92 556.61 a7.5 7.5 0 1 0 15 0 a7.5 7.5 0 1 0 -15 0zM1224.92 631.61 a7.5 7.5 0 1 0 15 0 a7.5 7.5 0 1 0 -15 0zM1159.96 669.11 a7.5 7.5 0 1 0 15 0 a7.5 7.5 0 1 0 -15 0zM1095.01 631.61 a7.5 7.5 0 1 0 15 0 a7.5 7.5 0 1 0 -15 0zM1095.01 556.61 a7.5 7.5 0 1 0 15 0 a7.5 7.5 0 1 0 -15 0zM1289.87 294.11 a7.5 7.5 0 1 0 15 0 a7.5 7.5 0 1 0 -15 0zM1354.82 331.61 a7.5 7.5 0 1 0 15 0 a7.5 7.5 0 1 0 -15 0zM1354.82 406.61 a7.5 7.5 0 1 0 15 0 a7.5 7.5 0 1 0 -15 0zM1289.87 444.11 a7.5 7.5 0 1 0 15 0 a7.5 7.5 0 1 0 -15 0zM1224.92 406.61 a7.5 7.5 0 1 0 15 0 a7.5 7.5 0 1 0 -15 0zM1224.92 331.61 a7.5 7.5 0 1 0 15 0 a7.5 7.5 0 1 0 -15 0zM1289.87 519.11 a7.5 7.5 0 1 0 15 0 a7.5 7.5 0 1 0 -15 0zM1159.96 444.11 a7.5 7.5 0 1 0 15 0 a7.5 7.5 0 1 0 -15 0zM1354.83 181.61 a7.5 7.5 0 1 0 15 0 a7.5 7.5 0 1 0 -15 0zM1419.78 219.11 a7.5 7.5 0 1 0 15 0 a7.5 7.5 0 1 0 -15 0zM1419.78 294.11 a7.5 7.5 0 1 0 15 0 a7.5 7.5 0 1 0 -15 0zM1354.83 331.61 a7.5 7.5 0 1 0 15 0 a7.5 7.5 0 1 0 -15 0zM1289.87 219.11 a7.5 7.5 0 1 0 15 0 a7.5 7.5 0 1 0 -15 0z" fill="#03305d"></path><path d="M6.43 -7.69L49.73 17.31L49.73 67.31L6.43 92.31L-36.87 67.31L-36.87 17.31zM49.73 217.31L93.03 242.31L93.03 292.31L49.73 317.31L6.43 292.31L6.43 242.31zM93.03 -7.69L136.34 17.31L136.34 67.31L93.03 92.31L49.73 67.31L49.73 17.31zM136.34 217.31L179.64 242.31L179.64 292.31L136.34 317.31L93.03 292.31L93.03 242.31zM93.03 292.31L136.34 317.31L136.34 367.31L93.03 392.31L49.73 367.31L49.73 317.31zM309.55 67.31L352.85 92.31L352.85 142.31L309.55 167.31L266.25 142.31L266.25 92.31zM352.85 -7.69L396.15 17.31L396.15 67.31L352.85 92.31L309.55 67.31L309.55 17.31zM396.15 217.31L439.46 242.31L439.46 292.31L396.15 317.31L352.85 292.31L352.85 242.31zM396.15 517.31L439.46 542.31L439.46 592.31L396.15 617.31L352.85 592.31L352.85 542.31zM482.76 517.31L526.06 542.31L526.06 592.31L482.76 617.31L439.46 592.31L439.46 542.31zM569.36 517.31L612.66 542.31L612.66 592.31L569.36 617.31L526.06 592.31L526.06 542.31zM612.66 -7.69L655.97 17.31L655.97 67.31L612.66 92.31L569.36 67.31L569.36 17.31zM655.97 67.31L699.27 92.31L699.27 142.31L655.97 167.31L612.66 142.31L612.66 92.31zM612.66 292.31L655.97 317.31L655.97 367.31L612.66 392.31L569.36 367.31L569.36 317.31zM699.27 -7.69L742.57 17.31L742.57 67.31L699.27 92.31L655.97 67.31L655.97 17.31zM742.57 517.31L785.88 542.31L785.88 592.31L742.57 617.31L699.27 592.31L699.27 542.31zM785.88 142.31L829.18 167.31L829.18 217.31L785.88 242.31L742.57 217.31L742.57 167.31zM785.88 292.31L829.18 317.31L829.18 367.31L785.88 392.31L742.57 367.31L742.57 317.31zM829.18 367.31L872.48 392.31L872.48 442.31L829.18 467.31L785.88 442.31L785.88 392.31zM915.78 67.31L959.09 92.31L959.09 142.31L915.78 167.31L872.48 142.31L872.48 92.31zM872.48 142.31L915.78 167.31L915.78 217.31L872.48 242.31L829.18 217.31L829.18 167.31zM959.09 142.31L1002.39 167.31L1002.39 217.31L959.09 242.31L915.78 217.31L915.78 167.31zM1088.99 67.31L1132.3 92.31L1132.3 142.31L1088.99 167.31L1045.69 142.31L1045.69 92.31zM1045.69 142.31L1088.99 167.31L1088.99 217.31L1045.69 242.31L1002.39 217.31L1002.39 167.31zM1045.69 292.31L1088.99 317.31L1088.99 367.31L1045.69 392.31L1002.39 367.31L1002.39 317.31zM1132.3 292.31L1175.6 317.31L1175.6 367.31L1132.3 392.31L1088.99 367.31L1088.99 317.31zM1175.6 367.31L1218.9 392.31L1218.9 442.31L1175.6 467.31L1132.3 442.31L1132.3 392.31zM1262.2 217.31L1305.51 242.31L1305.51 292.31L1262.2 317.31L1218.9 292.31L1218.9 242.31zM1218.9 442.31L1262.2 467.31L1262.2 517.31L1218.9 542.31L1175.6 517.31L1175.6 467.31z" stroke="rgba(6, 80, 156, 0.93)" stroke-width="2"></path></g><defs><mask id="SvgjsMask1000"><rect width="1440" height="560" fill="#ffffff"></rect></mask></defs></svg>